<?xml version="1.0" standalone="no"?>
<!DOCTYPE svg PUBLIC "-//W3C//DTD SVG 20010904//EN"
 "http://www.w3.org/TR/2001/REC-SVG-20010904/DTD/svg10.dtd">
<svg version="1.0" xmlns="http://www.w3.org/2000/svg"
 width="616.000000pt" height="598.000000pt" viewBox="0 0 616.000000 598.000000"
 preserveAspectRatio="xMidYMid meet">

<g transform="translate(0.000000,598.000000) scale(0.100000,-0.100000)"
fill="#000000" stroke="none">
<path d="M3552 4395 c-82 -18 -79 -16 -733 -416 -607 -371 -644 -399 -706
-515 -107 -202 -72 -441 88 -604 37 -38 81 -69 127 -91 39 -19 71 -36 71 -39
1 -3 -36 -27 -80 -55 -139 -86 -226 -202 -259 -344 -18 -75 -8 -211 20 -284
100 -264 391 -400 652 -304 36 13 313 176 643 378 623 381 681 422 737 534 62
121 76 274 38 397 -39 128 -144 251 -262 306 -32 15 -58 30 -58 33 0 4 33 26
73 50 146 88 231 205 263 363 55 266 -125 534 -395 592 -81 17 -137 17 -219
-1z m271 -94 c108 -42 203 -138 249 -251 17 -43 22 -76 22 -155 1 -95 -1 -104
-36 -177 -47 -100 -104 -155 -241 -238 -109 -66 -133 -93 -111 -128 6 -8 39
-24 74 -36 89 -29 150 -66 203 -126 119 -132 146 -318 70 -478 -53 -113 -83
-134 -713 -520 -322 -197 -605 -366 -630 -376 -59 -23 -172 -31 -239 -17 -181
39 -309 177 -341 368 -19 110 29 259 110 347 24 25 90 76 149 112 125 78 141
91 141 115 0 28 -25 45 -97 68 -180 54 -303 221 -303 411 0 125 64 265 152
332 19 14 292 185 608 379 361 221 599 362 640 376 83 30 205 27 293 -6z"/>
<path d="M2890 3060 c0 -176 2 -320 5 -320 13 0 515 313 515 320 0 7 -503 320
-515 320 -3 0 -5 -144 -5 -320z"/>
</g>
</svg>
